<?xml version="1.0" encoding="UTF-8" standalone="no"?>
<!-- Created with Inkscape (http://www.inkscape.org/) -->

<svg
   width="1080"
   height="1080"
   viewBox="0 0 285.74999 285.75"
   version="1.1"
   id="svg1"
   xml:space="preserve"
   inkscape:version="1.1.2 (0a00cf5339, 2022-02-04)"
   sodipodi:docname="desenho.svg"
   inkscape:export-filename="/home/rafa/inkscapes/bitmap.png"
   inkscape:export-xdpi="96"
   inkscape:export-ydpi="96"
   xmlns:inkscape="http://www.inkscape.org/namespaces/inkscape"
   xmlns:sodipodi="http://sodipodi.sourceforge.net/DTD/sodipodi-0.dtd"
   xmlns="http://www.w3.org/2000/svg"
   xmlns:svg="http://www.w3.org/2000/svg"><sodipodi:namedview
     id="namedview1"
     pagecolor="#ffffff"
     bordercolor="#000000"
     borderopacity="0.25"
     inkscape:showpageshadow="2"
     inkscape:pageopacity="0.0"
     inkscape:pagecheckerboard="0"
     inkscape:deskcolor="#d1d1d1"
     inkscape:document-units="mm"
     showguides="true"
     inkscape:zoom="0.32227765"
     inkscape:cx="34.13206"
     inkscape:cy="345.97497"
     inkscape:window-width="1920"
     inkscape:window-height="1024"
     inkscape:window-x="0"
     inkscape:window-y="0"
     inkscape:window-maximized="1"
     inkscape:current-layer="layer1"
     inkscape:export-bgcolor="#ffffff00"
     inkscape:pageshadow="2"
     showgrid="false" /><defs
     id="defs1" /><g
     inkscape:label="Camada 1"
     inkscape:groupmode="layer"
     id="layer1"
     transform="translate(3.9558229,-16.660057)"><path
       style="fill:#000000;stroke-width:0.145199"
       d="m 104.42526,220.81456 c -4.20101,-0.96786 -7.556365,-3.72547 -9.395605,-7.72182 -0.97521,-2.11897 -1.20091,-3.24592 -1.19824,-5.98288 0.002,-2.14975 0.038,-2.48937 0.38948,-3.688 0.56755,-1.93529 1.63809,-4.0376 2.61788,-5.14096 l 0.34961,-0.39369 -2.25824,-0.0524 c -1.9931,-0.0462 -2.32728,-0.0905 -2.84636,-0.37706 -0.80573,-0.44484 -1.68681,-1.5254 -1.90557,-2.33698 -0.33624,-1.24749 -0.14153,-1.99729 2.4589,-9.46909 l 2.4722,-7.10338 -1.6461,-0.084 c -1.04585,-0.0534 -1.84088,-0.17204 -2.18028,-0.32539 -1.20215,-0.54321 -2.18126,-1.65701 -2.53511,-2.88383 -0.0988,-0.34247 -3.10282,-17.14667 -6.67564,-37.34265 l -6.496037,-36.71998 -9.374707,-3.821974 c -25.804354,-8.615517 -11.524039,-3.2979 15.449174,-3.60693 0.72209,0.37844 1.53362,1.27091 1.91522,2.10623 0.13394,0.29321 0.91105,4.298504 1.72692,8.900664 0.81586,4.60217 3.7094,20.95387 6.43009,36.33713 l 4.94671,27.96957 35.362585,0.0373 c 19.44943,0.0205 35.36259,0.002 35.36259,-0.0402 0,-0.0426 3.55707,-11.60898 7.90459,-25.70302 4.34752,-14.09405 7.88955,-25.63839 7.87117,-25.6541 -20.28466,-4.56126 -43.6115,-1.5365 -84.813795,-7.17983 23.018455,-1.54947 65.883625,-2.9833 86.917355,-2.06178 1.88053,0.0823 3.80942,0.18685 4.28642,0.23242 1.64684,0.15734 3.05989,1.15698 3.76068,2.66046 0.27782,0.59605 0.34005,0.95581 0.33169,1.91759 -0.01,1.14856 -0.29365,2.10062 -9.50184,31.89123 -6.93711,22.44317 -9.59782,30.86539 -9.88646,31.29462 -0.2172,0.323 -0.66857,0.80411 -1.00305,1.06911 -1.26768,1.00437 1.48325,0.93337 -36.16636,0.93337 -18.75195,0 -34.09444,0.0248 -34.09444,0.055 0,0.0303 -0.89753,2.64308 -1.99451,5.80629 -1.096985,3.16321 -1.994515,5.76893 -1.994515,5.79049 7.966145,0.61118 47.814125,2.34944 74.786035,5.77685 -5.08877,0.95783 -7.84412,1.38363 -6.68974,2.87174 0.77715,1.00182 1.67758,2.79351 2.11661,4.21171 0.93683,3.02618 0.75252,6.63243 -0.49709,9.72618 -0.86116,2.13204 -2.78849,4.58125 -4.62394,5.87599 -1.20816,0.85225 -2.99991,1.71043 -4.33075,2.07424 -1.71153,0.46789 -4.19498,0.53899 -5.91295,0.16928 -6.38529,-1.37412 -10.82665,-6.97316 -10.82665,-13.64869 0,-3.08764 1.00775,-6.21617 2.70859,-8.40871 l 0.7094,-0.91449 h -14.60205 c -8.03113,0 -14.60205,0.0297 -14.60205,0.0662 0,0.0364 0.32002,0.50535 0.71116,1.04214 0.87254,1.19748 1.73043,3.01485 2.16633,4.58921 0.28091,1.01456 0.3278,1.52256 0.32788,3.55169 7e-5,2.01489 -0.0491,2.55527 -0.32985,3.62569 -1.24569,4.74922 -4.75934,8.44714 -9.35766,9.84843 -1.76306,0.53727 -4.56599,0.63921 -6.33968,0.23058 z m 4.6301,-7.79158 c 2.92806,-1.0314 4.64826,-4.33683 3.85039,-7.39867 -1.22657,-4.70698 -6.79302,-6.20297 -10.07141,-2.7067 -1.26834,1.35263 -1.88454,3.42333 -1.56118,5.24627 0.67291,3.79359 4.32804,6.07581 7.7822,4.8591 z m 48.53783,0.21119 c 2.41848,-0.52904 4.29874,-2.56741 4.71896,-5.11577 0.41961,-2.54457 -0.95925,-5.32786 -3.20368,-6.46678 -3.64749,-1.85088 -7.87881,0.40081 -8.56425,4.55746 -0.51262,3.10867 1.49116,6.19869 4.52724,6.98142 0.91878,0.23687 1.58572,0.24842 2.52173,0.0436 z"
       id="path153"
       sodipodi:nodetypes="cscssccssscccsscccssscssscccssssssssscccssssssscsssssssccssssscsssscc" /></g></svg>
